<?xml version="1.0" encoding="iso-8859-1"?>
<!-- Uploaded to: SVG Repo, www.svgrepo.com, Generator: SVG Repo Mixer Tools -->
<svg version="1.1" id="Layer_1" xmlns="http://www.w3.org/2000/svg" xmlns:xlink="http://www.w3.org/1999/xlink" 
	 viewBox="0 0 512 512" xml:space="preserve">
<path style="fill:#E5E5E5;" d="M256,0C114.616,0,0,114.616,0,256s114.616,256,256,256s256-114.616,256-256S397.384,0,256,0z"/>
<polygon points="446.512,335.656 65.488,335.656 65.488,348.264 84.536,365.848 427.464,365.848 446.512,348.264 "/>
<path style="fill:#F00000;" d="M101.208,335.656V129.072c0-4.944,4.016-8.984,8.928-8.984h291.72c4.912,0,8.936,4.04,8.936,8.984
	v206.584"/>
<path d="M416.744,335.656H404.84V129.072c0-1.64-1.36-3.032-2.976-3.032H110.136c-1.616,0-2.976,1.392-2.976,3.032v206.584H95.256
	V129.072c0-8.248,6.672-14.944,14.88-14.944h291.72c8.208,0,14.88,6.696,14.88,14.944L416.744,335.656L416.744,335.656z"/>
<polygon style="fill:#999999;" points="290.992,348.184 221.008,348.184 209.104,335.656 302.896,335.656 "/>
<path style="fill:#FFFFFF;" d="M331.048,198.232v108.32l-150.096,0.112V198.232"/>
<rect x="163.256" y="300.856" width="185.52" height="11.608"/>
<rect x="232.64" y="247.184" width="46.784" height="53.672"/>
<path d="M163.168,177.144V205.2c0,12.76,10.392,23.112,23.208,23.112s23.208-10.344,23.208-23.112
	c0,12.768,10.392,23.112,23.208,23.112S256,217.96,256,205.2c0,12.768,10.392,23.112,23.208,23.112s23.208-10.352,23.208-23.112
	h0.016c0,12.76,10.392,23.112,23.208,23.112s23.208-10.344,23.208-23.112v-28.056H163.168z"/>
<polygon points="319.144,147.664 255.848,147.664 247.968,147.664 192.824,147.664 163.16,177.136 348.808,177.136 "/>
</svg>